<svg width="164" height="168" viewBox="0 0 164 168" fill="none" xmlns="http://www.w3.org/2000/svg">
<g filter="url(#filter0_d_9_9)">
<rect x="4" width="156" height="160" rx="27" fill="#CE5F5F"/>
<g filter="url(#filter1_d_9_9)">
<path d="M136.827 80.1822L129.412 82.6146L131.488 73.9274L145.064 58.0974C145.218 57.9136 145.401 57.7675 145.603 57.6677C145.806 57.568 146.023 57.5166 146.242 57.5166C146.462 57.5166 146.679 57.568 146.882 57.6677C147.084 57.7675 147.267 57.9136 147.421 58.0974L150.337 61.5337C150.491 61.7132 150.614 61.9267 150.697 62.1619C150.781 62.3972 150.824 62.6495 150.824 62.9044C150.824 63.1592 150.781 63.4115 150.697 63.6468C150.614 63.882 150.491 64.0955 150.337 64.275L136.827 80.1822Z" fill="#0E0101"/>
<path d="M136.827 80.1822L129.412 82.6146L131.488 73.9274L145.064 58.0974C145.218 57.9136 145.401 57.7675 145.603 57.6677C145.806 57.568 146.023 57.5166 146.242 57.5166C146.462 57.5166 146.679 57.568 146.882 57.6677C147.084 57.7675 147.267 57.9136 147.421 58.0974L150.337 61.5337C150.491 61.7132 150.614 61.9267 150.697 62.1619C150.781 62.3972 150.824 62.6495 150.824 62.9044C150.824 63.1592 150.781 63.4115 150.697 63.6468C150.614 63.882 150.491 64.0955 150.337 64.275L136.827 80.1822Z" stroke="black" stroke-linecap="round" stroke-linejoin="round"/>
</g>
<g filter="url(#filter2_d_9_9)">
<path d="M16.0071 93.4354L15.8806 71.0357L26.8244 70.9707C29.6403 70.9539 31.7553 71.4747 33.1693 72.533C34.6046 73.5912 35.3273 74.9949 35.3371 76.7442C35.3438 77.9175 35.0616 78.9432 34.4905 79.8213C33.9193 80.678 33.1338 81.344 32.1338 81.8193C31.1338 82.2946 29.9831 82.5361 28.6818 82.5438L29.2824 81.2283C30.6904 81.2199 31.9397 81.4471 33.0303 81.91C34.1208 82.3515 34.9673 83.0185 35.5696 83.9109C36.1934 84.8032 36.5089 85.9001 36.5162 87.2014C36.5271 89.1213 35.7783 90.6298 34.2698 91.7268C32.7612 92.8025 30.5349 93.349 27.5909 93.3665L16.0071 93.4354ZM21.137 89.5008L27.1849 89.4649C28.5289 89.4569 29.541 89.2375 30.2212 88.8068C30.9227 88.3546 31.2707 87.6486 31.2653 86.6886C31.26 85.7499 30.904 85.0587 30.1975 84.6149C29.5122 84.1496 28.4976 83.921 27.1536 83.929L20.7217 83.9672L20.7004 80.1912L26.2363 80.1583C27.4949 80.1509 28.4537 79.9318 29.1126 79.5012C29.7927 79.0492 30.1303 78.3752 30.1252 77.4792C30.1203 76.6045 29.7753 75.9559 29.0902 75.5333C28.4263 75.0892 27.4651 74.8709 26.2065 74.8784L21.0545 74.9091L21.137 89.5008ZM50.4295 93.6148C47.2508 93.6337 44.7606 92.7631 42.9586 91.0031C41.1566 89.2432 40.2463 86.7205 40.2278 83.4352L40.1569 70.8914L45.3408 70.8606L45.4106 83.2124C45.4227 85.3457 45.8687 86.8791 46.7486 87.8126C47.6286 88.746 48.8579 89.208 50.4365 89.1987C52.0151 89.1893 53.2391 88.7127 54.1085 87.7688C54.9778 86.825 55.4065 85.2864 55.3944 83.1531L55.3246 70.8013L60.4445 70.7708L60.5154 83.3146C60.534 86.5999 59.6523 89.1332 57.8703 90.9145C56.0884 92.6958 53.6081 93.5959 50.4295 93.6148ZM65.6938 93.14L65.5672 70.7404L69.8551 70.7149L83.162 86.7641L81.0821 86.7765L80.9909 70.6487L86.1108 70.6183L86.2374 93.0179L81.9815 93.0432L68.6426 76.9942L70.7225 76.9819L70.8137 93.1096L65.6938 93.14ZM91.5371 92.9864L91.4105 70.5868L101.586 70.5263C104.018 70.5118 106.165 70.9684 108.026 71.896C109.887 72.8023 111.345 74.0844 112.4 75.7421C113.455 77.3999 113.988 79.3701 114.001 81.6527C114.014 83.914 113.503 85.8904 112.467 87.5819C111.431 89.2521 109.988 90.5621 108.137 91.5117C106.286 92.4401 104.145 92.9115 101.713 92.9259L91.5371 92.9864ZM96.6969 88.6997L101.433 88.6715C102.926 88.6627 104.215 88.3777 105.3 87.8165C106.406 87.2339 107.255 86.4182 107.846 85.3694C108.459 84.3204 108.761 83.0919 108.753 81.6839C108.745 80.2546 108.429 79.0298 107.805 78.0095C107.201 76.9677 106.344 76.1728 105.231 75.6247C104.14 75.0552 102.848 74.7749 101.354 74.7838L96.6185 74.8119L96.6969 88.6997ZM117.974 92.8293L117.848 70.4296L123.031 70.3988L123.134 88.5745L134.366 88.5078L134.39 92.7317L117.974 92.8293Z" fill="black"/>
</g>
</g>
<defs>
<filter id="filter0_d_9_9" x="0" y="0" width="164" height="168" filterUnits="userSpaceOnUse" color-interpolation-filters="sRGB">
<feFlood flood-opacity="0" result="BackgroundImageFix"/>
<feColorMatrix in="SourceAlpha" type="matrix" values="0 0 0 0 0 0 0 0 0 0 0 0 0 0 0 0 0 0 127 0" result="hardAlpha"/>
<feOffset dy="4"/>
<feGaussianBlur stdDeviation="2"/>
<feComposite in2="hardAlpha" operator="out"/>
<feColorMatrix type="matrix" values="0 0 0 0 0 0 0 0 0 0 0 0 0 0 0 0 0 0 0.25 0"/>
<feBlend mode="normal" in2="BackgroundImageFix" result="effect1_dropShadow_9_9"/>
<feBlend mode="normal" in="SourceGraphic" in2="effect1_dropShadow_9_9" result="shape"/>
</filter>
<filter id="filter1_d_9_9" x="124.912" y="57.0166" width="30.4117" height="34.0981" filterUnits="userSpaceOnUse" color-interpolation-filters="sRGB">
<feFlood flood-opacity="0" result="BackgroundImageFix"/>
<feColorMatrix in="SourceAlpha" type="matrix" values="0 0 0 0 0 0 0 0 0 0 0 0 0 0 0 0 0 0 127 0" result="hardAlpha"/>
<feOffset dy="4"/>
<feGaussianBlur stdDeviation="2"/>
<feComposite in2="hardAlpha" operator="out"/>
<feColorMatrix type="matrix" values="0 0 0 0 0 0 0 0 0 0 0 0 0 0 0 0 0 0 0.25 0"/>
<feBlend mode="normal" in2="BackgroundImageFix" result="effect1_dropShadow_9_9"/>
<feBlend mode="normal" in="SourceGraphic" in2="effect1_dropShadow_9_9" result="shape"/>
</filter>
<filter id="filter2_d_9_9" x="11.8806" y="70.332" width="126.511" height="31.4873" filterUnits="userSpaceOnUse" color-interpolation-filters="sRGB">
<feFlood flood-opacity="0" result="BackgroundImageFix"/>
<feColorMatrix in="SourceAlpha" type="matrix" values="0 0 0 0 0 0 0 0 0 0 0 0 0 0 0 0 0 0 127 0" result="hardAlpha"/>
<feOffset dy="4"/>
<feGaussianBlur stdDeviation="2"/>
<feComposite in2="hardAlpha" operator="out"/>
<feColorMatrix type="matrix" values="0 0 0 0 0 0 0 0 0 0 0 0 0 0 0 0 0 0 0.25 0"/>
<feBlend mode="normal" in2="BackgroundImageFix" result="effect1_dropShadow_9_9"/>
<feBlend mode="normal" in="SourceGraphic" in2="effect1_dropShadow_9_9" result="shape"/>
</filter>
</defs>
</svg>
